<svg width="18" height="18" viewBox="0 0 18 18" fill="none" xmlns="http://www.w3.org/2000/svg">
    <path
        d="M10.25 16.5V10.25C10.25 10.0842 10.3159 9.92527 10.4331 9.80806C10.5503 9.69085 10.7093 9.625 10.875 9.625H13.375C13.5408 9.625 13.6997 9.69085 13.817 9.80806C13.9342 9.92527 14 10.0842 14 10.25V16.5M10.25 16.5H0.966679M10.25 16.5H14M14 16.5H17.0333M15.875 16.5V6.79083C16.2072 6.59909 16.4908 6.33349 16.7038 6.01459C16.9169 5.6957 17.0538 5.33205 17.1038 4.95179C17.1538 4.57154 17.1157 4.18487 16.9924 3.82171C16.869 3.45855 16.6638 3.12864 16.3925 2.8575L15.4008 1.86667C15.1667 1.63218 14.8489 1.50029 14.5175 1.5H3.48168C3.15027 1.50029 2.83254 1.63218 2.59835 1.86667L1.60751 2.85667C1.33688 3.12811 1.13219 3.45809 1.00924 3.82114C0.886282 4.1842 0.848342 4.57064 0.898343 4.95068C0.948343 5.33072 1.08495 5.6942 1.29763 6.01309C1.5103 6.33199 1.79337 6.59779 2.12501 6.79M2.12501 16.4992V6.79167C2.62503 7.07999 3.20939 7.18647 3.77897 7.09306C4.34855 6.99965 4.86828 6.71209 5.25001 6.27917C5.48443 6.54537 5.77293 6.75852 6.09626 6.90437C6.41959 7.05023 6.77031 7.12545 7.12501 7.125C7.87168 7.125 8.54168 6.7975 9.00001 6.27833C9.23435 6.54469 9.52282 6.75799 9.84615 6.90399C10.1695 7.05 10.5202 7.12534 10.875 7.125C11.6217 7.125 12.2917 6.7975 12.75 6.27833C13.1319 6.71112 13.6516 6.99852 14.2212 7.09178C14.7908 7.18504 15.3751 7.07842 15.875 6.79M4.62501 13.9992H7.75001C7.91577 13.9992 8.07474 13.9333 8.19195 13.8161C8.30916 13.6989 8.37501 13.5399 8.37501 13.3742V10.25C8.37501 10.0842 8.30916 9.92527 8.19195 9.80806C8.07474 9.69085 7.91577 9.625 7.75001 9.625H4.62501C4.45925 9.625 4.30028 9.69085 4.18307 9.80806C4.06586 9.92527 4.00001 10.0842 4.00001 10.25V13.375C4.00001 13.7208 4.28001 13.9992 4.62501 13.9992Z"
        stroke="#52525B" stroke-width="1.5" stroke-linecap="round" stroke-linejoin="round" />
</svg>