<svg width="21" height="22" viewBox="0 0 21 22" fill="none" xmlns="http://www.w3.org/2000/svg">
<path d="M20.1341 12.5093L18.9045 11.2797C18.7194 11.0943 18.5655 10.8803 18.4484 10.6459L17.2784 8.30592C17.2466 8.24241 17.2001 8.18737 17.1428 8.14535C17.0856 8.10332 17.0191 8.0755 16.949 8.06418C16.8788 8.05286 16.807 8.05836 16.7394 8.08024C16.6718 8.10211 16.6104 8.13973 16.5602 8.19C16.4472 8.30291 16.306 8.38354 16.1513 8.42354C15.9967 8.46354 15.8341 8.46145 15.6805 8.4175L14.3014 8.02425C14.0808 7.96222 13.8453 7.98082 13.6371 8.07672C13.4289 8.17262 13.2617 8.33955 13.1655 8.54756C13.0692 8.75557 13.0502 8.99107 13.1119 9.21182C13.1735 9.43258 13.3118 9.62414 13.5019 9.75217L14.1378 10.1747C14.777 10.6026 14.868 11.5072 14.3242 12.051L14.1075 12.2677C13.8778 12.4973 13.75 12.8072 13.75 13.13V13.5742C13.75 14.0173 13.6308 14.4506 13.4033 14.8287L11.9788 17.2023C11.7757 17.541 11.4883 17.8213 11.1447 18.0159C10.801 18.2105 10.4129 18.3127 10.0179 18.3127C9.71481 18.3127 9.42411 18.1923 9.20977 17.9779C8.99543 17.7636 8.87501 17.4729 8.87501 17.1698V15.9001C8.87501 14.9034 8.26835 14.0075 7.34318 13.637L6.6336 13.3543C6.11732 13.1476 5.68724 12.7706 5.41472 12.2858C5.14219 11.8011 5.04362 11.2377 5.13535 10.6893L5.14293 10.6437C5.19329 10.3424 5.29986 10.0532 5.4571 9.79117L5.5546 9.62867C5.81332 9.19784 6.19888 8.8575 6.65849 8.65427C7.11811 8.45103 7.62931 8.39482 8.1221 8.49333L9.39826 8.749C9.69858 8.8089 10.0104 8.75355 10.2718 8.59397C10.5332 8.43438 10.7249 8.18226 10.8088 7.88775L11.0341 7.09692C11.1122 6.82371 11.0923 6.53181 10.978 6.27168C10.8636 6.01156 10.662 5.79956 10.4079 5.67233L9.68752 5.31267L9.58893 5.41125C9.36259 5.63759 9.09388 5.81714 8.79814 5.93963C8.50241 6.06212 8.18545 6.12517 7.86535 6.12517H7.67035C7.4006 6.12517 7.14276 6.2335 6.95318 6.422C6.77943 6.59732 6.54742 6.70284 6.30109 6.71858C6.05476 6.73431 5.81121 6.65917 5.61657 6.50738C5.42192 6.35559 5.2897 6.13769 5.24494 5.89495C5.20017 5.65221 5.24598 5.40148 5.37368 5.19025L6.90226 2.64117C7.05462 2.38778 7.15961 2.1088 7.2121 1.81783M20.1341 12.5093C20.3965 10.8378 20.2195 9.12686 19.6203 7.54458C19.0212 5.9623 18.0207 4.56314 16.7171 3.48466C15.4135 2.40618 13.8516 1.68549 12.1851 1.39343C10.5186 1.10138 8.80477 1.24801 7.2121 1.81892C5.59178 2.39973 4.1541 3.39915 3.04516 4.7156C1.93623 6.03205 1.19556 7.6186 0.898438 9.31404C0.601314 11.0095 0.758322 12.7533 1.35351 14.3684C1.94869 15.9835 2.96083 17.4123 4.28708 18.5095C5.61333 19.6067 7.2064 20.3332 8.90441 20.6153C10.6024 20.8973 12.3448 20.7248 13.9546 20.1153C15.5643 19.5058 16.984 18.481 18.0694 17.1451C19.1548 15.8092 19.8671 14.2097 20.1341 12.5093Z" stroke="#4B5563" stroke-width="1.5" stroke-linecap="round" stroke-linejoin="round"/>
</svg>
