<svg width="116" height="36" viewBox="0 0 116 36" fill="none" xmlns="http://www.w3.org/2000/svg">
<path d="M35.6342 32.5345C35.4809 32.5345 35.3702 32.5111 35.3021 32.4643C35.2383 32.4175 35.1978 32.3579 35.1808 32.2855C35.1638 32.2089 35.1553 32.128 35.1553 32.0428V28.5501C35.1553 28.4692 35.1638 28.3947 35.1808 28.3266C35.1978 28.2542 35.2404 28.1946 35.3085 28.1478C35.3766 28.101 35.4894 28.0776 35.6469 28.0776C35.7534 28.0776 35.8342 28.0839 35.8896 28.0967C35.9449 28.1095 35.9854 28.1286 36.0109 28.1542C36.0364 28.1755 36.0641 28.201 36.0939 28.2308L37.5306 30.1719H37.4348L38.8779 28.2308C38.912 28.1882 38.946 28.1563 38.9801 28.135C39.0141 28.1137 39.0567 28.0988 39.1078 28.0903C39.1631 28.0818 39.2397 28.0776 39.3376 28.0776C39.4909 28.0776 39.6016 28.101 39.6697 28.1478C39.7378 28.1946 39.7804 28.2564 39.7974 28.333C39.8144 28.4053 39.8229 28.482 39.8229 28.5628V32.0556C39.8229 32.1365 39.8144 32.2131 39.7974 32.2855C39.7804 32.3579 39.7378 32.4175 39.6697 32.4643C39.6016 32.5111 39.4888 32.5345 39.3313 32.5345C39.178 32.5345 39.0673 32.5111 38.9992 32.4643C38.9311 32.4175 38.8885 32.3557 38.8715 32.2791C38.8545 32.2025 38.846 32.1237 38.846 32.0428V29.7633L37.8946 31.1106C37.8775 31.1319 37.8541 31.1617 37.8243 31.2C37.7945 31.234 37.752 31.2638 37.6966 31.2894C37.6455 31.3149 37.5753 31.3277 37.4859 31.3277C37.3923 31.3277 37.3178 31.3149 37.2624 31.2894C37.2113 31.2638 37.1709 31.234 37.1411 31.2C37.1113 31.1659 37.0858 31.1361 37.0645 31.1106L36.1194 29.7697V32.0556C36.1194 32.1365 36.1109 32.2131 36.0939 32.2855C36.0769 32.3579 36.0343 32.4175 35.9662 32.4643C35.9023 32.5111 35.7917 32.5345 35.6342 32.5345ZM52.1912 31.8577C52.2423 31.9641 52.27 32.0556 52.2743 32.1322C52.2785 32.2046 52.2551 32.2706 52.204 32.3302C52.1572 32.3855 52.0784 32.4409 51.9678 32.4962C51.7975 32.5771 51.6655 32.6005 51.5719 32.5664C51.4782 32.5366 51.391 32.4366 51.3101 32.2663L50.0586 29.6484L48.8134 32.2663C48.7283 32.4324 48.6389 32.5303 48.5452 32.5601C48.4558 32.5941 48.326 32.5707 48.1557 32.4898C48.045 32.4387 47.9642 32.3855 47.9131 32.3302C47.8663 32.2706 47.845 32.2025 47.8492 32.1259C47.8535 32.045 47.8833 31.9513 47.9386 31.8449L49.618 28.3521C49.6605 28.267 49.7223 28.1989 49.8031 28.1478C49.8883 28.0967 49.9755 28.0712 50.0649 28.0712C50.1288 28.0712 50.1884 28.0839 50.2437 28.1095C50.2991 28.1308 50.348 28.1627 50.3906 28.2053C50.4374 28.2478 50.4757 28.2989 50.5055 28.3585L52.1912 31.8577ZM48.9858 31.4937L49.3817 30.67H50.7418L51.1377 31.4937H48.9858ZM60.9774 32.5345C60.8241 32.5345 60.7134 32.5132 60.6453 32.4707C60.5772 32.4238 60.5346 32.3621 60.5176 32.2855C60.5048 32.2089 60.4985 32.1301 60.4985 32.0492V28.5501C60.4985 28.4692 60.5048 28.3926 60.5176 28.3202C60.5346 28.2436 60.5772 28.184 60.6453 28.1414C60.7134 28.0946 60.8262 28.0712 60.9837 28.0712C61.1455 28.0712 61.2583 28.0946 61.3222 28.1414C61.3903 28.1882 61.4307 28.2478 61.4435 28.3202C61.4605 28.3926 61.469 28.4713 61.469 28.5565V29.6611L62.8355 28.2308C62.9206 28.1457 62.9972 28.0861 63.0654 28.052C63.1377 28.018 63.2101 28.0116 63.2825 28.0329C63.3591 28.0542 63.44 28.1074 63.5251 28.1925C63.6698 28.3245 63.7422 28.4415 63.7422 28.5437C63.7465 28.6416 63.6869 28.7523 63.5634 28.8757L62.0948 30.306L63.5762 31.7236C63.7081 31.8555 63.7699 31.9747 63.7614 32.0812C63.7571 32.1833 63.6826 32.294 63.5379 32.4132C63.4357 32.4983 63.3463 32.5515 63.2697 32.5728C63.1973 32.5984 63.1292 32.592 63.0654 32.5537C63.0015 32.5196 62.9291 32.4579 62.8483 32.3685L61.469 30.9318V32.0556C61.469 32.1365 61.4605 32.2153 61.4435 32.2919C61.4307 32.3642 61.3903 32.4238 61.3222 32.4707C61.2541 32.5132 61.1391 32.5345 60.9774 32.5345ZM73.5611 32.5984C73.3355 32.5984 73.1375 32.5707 72.9672 32.5154C72.8012 32.46 72.6586 32.394 72.5394 32.3174C72.4245 32.2365 72.333 32.1578 72.2649 32.0812C72.1967 32.0045 72.1499 31.9471 72.1244 31.9088C72.052 31.8151 72.0073 31.7342 71.9903 31.6661C71.9733 31.5937 71.9818 31.5214 72.0158 31.449C72.0541 31.3766 72.118 31.2979 72.2074 31.2128C72.2968 31.1361 72.3798 31.0957 72.4564 31.0914C72.5373 31.0829 72.616 31.1021 72.6927 31.1489C72.7693 31.1957 72.8438 31.2617 72.9162 31.3468C73.0183 31.4703 73.1184 31.5576 73.2163 31.6086C73.3184 31.6555 73.4249 31.6789 73.5355 31.6789C73.676 31.6789 73.7952 31.6619 73.8931 31.6278C73.991 31.5937 74.0655 31.5405 74.1166 31.4682C74.1677 31.3915 74.1932 31.2958 74.1932 31.1808C74.1932 31.0872 74.157 31.0127 74.0847 30.9573C74.0166 30.8977 73.9229 30.8467 73.8037 30.8041C73.6888 30.7615 73.5589 30.7211 73.4142 30.6828C73.2737 30.6402 73.1333 30.5913 72.9928 30.5359C72.8949 30.5019 72.8012 30.4593 72.7118 30.4082C72.6224 30.3571 72.5373 30.2997 72.4564 30.2358C72.3755 30.1719 72.3053 30.0953 72.2457 30.0059C72.1904 29.9165 72.1457 29.8144 72.1116 29.6994C72.0818 29.5845 72.0669 29.4525 72.0669 29.3035C72.0669 29.0524 72.1286 28.8289 72.2521 28.6331C72.3755 28.4373 72.5458 28.284 72.7629 28.1733C72.9843 28.0584 73.2376 28.0009 73.5228 28.0009C73.7143 28.0009 73.8803 28.018 74.0208 28.052C74.1656 28.0861 74.2869 28.1265 74.3848 28.1733C74.4827 28.2202 74.5593 28.267 74.6147 28.3138C74.6743 28.3564 74.7147 28.3904 74.736 28.416C74.8552 28.5267 74.9211 28.6224 74.9339 28.7033C74.9467 28.7799 74.902 28.8885 74.7998 29.029C74.6934 29.178 74.587 29.261 74.4806 29.278C74.3784 29.295 74.2613 29.2588 74.1294 29.1695C74.0783 29.1226 74.0272 29.0801 73.9761 29.0417C73.925 29.0034 73.8633 28.9736 73.7909 28.9524C73.7228 28.9268 73.6313 28.914 73.5164 28.914C73.4483 28.914 73.3844 28.9247 73.3248 28.946C73.2652 28.963 73.2141 28.9885 73.1716 29.0226C73.129 29.0566 73.0949 29.0992 73.0694 29.1503C73.0439 29.1971 73.0311 29.2503 73.0311 29.3099C73.0311 29.4078 73.063 29.4866 73.1269 29.5462C73.195 29.6058 73.2823 29.6547 73.3887 29.6931C73.4994 29.7271 73.6207 29.7612 73.7526 29.7952C73.8889 29.825 74.0272 29.8612 74.1677 29.9038C74.2954 29.9463 74.4188 29.9995 74.538 30.0634C74.6572 30.123 74.7636 30.1996 74.8573 30.2933C74.9509 30.3869 75.0254 30.504 75.0808 30.6445C75.1404 30.7849 75.1702 30.9573 75.1702 31.1617C75.1702 31.4171 75.1212 31.6363 75.0233 31.8194C74.9254 32.0024 74.7956 32.1514 74.6338 32.2663C74.472 32.3813 74.2975 32.4643 74.1102 32.5154C73.9229 32.5707 73.7399 32.5984 73.5611 32.5984ZM87.3078 31.8577C87.3589 31.9641 87.3865 32.0556 87.3908 32.1322C87.395 32.2046 87.3716 32.2706 87.3205 32.3302C87.2737 32.3855 87.195 32.4409 87.0843 32.4962C86.914 32.5771 86.782 32.6005 86.6884 32.5664C86.5947 32.5366 86.5075 32.4366 86.4266 32.2663L85.1751 29.6484L83.9299 32.2663C83.8448 32.4324 83.7554 32.5303 83.6618 32.5601C83.5724 32.5941 83.4425 32.5707 83.2723 32.4898C83.1616 32.4387 83.0807 32.3855 83.0296 32.3302C82.9828 32.2706 82.9615 32.2025 82.9658 32.1259C82.97 32.045 82.9998 31.9513 83.0551 31.8449L84.7345 28.3521C84.7771 28.267 84.8388 28.1989 84.9197 28.1478C85.0048 28.0967 85.0921 28.0712 85.1815 28.0712C85.2453 28.0712 85.3049 28.0839 85.3603 28.1095C85.4156 28.1308 85.4645 28.1627 85.5071 28.2053C85.5539 28.2478 85.5923 28.2989 85.622 28.3585L87.3078 31.8577ZM84.1023 31.4937L84.4982 30.67H85.8583L86.2542 31.4937H84.1023ZM96.0236 32.5345C95.8704 32.5345 95.7597 32.5111 95.6916 32.4643C95.6235 32.4132 95.5809 32.3493 95.5639 32.2727C95.5511 32.1918 95.5447 32.1088 95.5447 32.0237V28.5628C95.5447 28.4777 95.5511 28.399 95.5639 28.3266C95.5809 28.25 95.6235 28.1882 95.6916 28.1414C95.7597 28.0903 95.8725 28.0648 96.03 28.0648H97.62C97.8711 28.0648 98.0946 28.1244 98.2904 28.2436C98.4862 28.3628 98.6416 28.5224 98.7566 28.7225C98.8715 28.9226 98.9268 29.1397 98.9226 29.3738C98.9268 29.4674 98.9183 29.559 98.897 29.6484C98.8757 29.7377 98.8438 29.825 98.8013 29.9102C98.7629 29.991 98.714 30.0655 98.6544 30.1336C98.7438 30.2188 98.8183 30.3167 98.8779 30.4274C98.9375 30.5338 98.9822 30.6466 99.012 30.7658C99.046 30.885 99.0631 31.0063 99.0631 31.1297C99.0588 31.3256 99.0205 31.5107 98.9481 31.6853C98.88 31.8555 98.7821 32.0045 98.6544 32.1322C98.5267 32.2557 98.3798 32.3536 98.2138 32.426C98.0478 32.4983 97.8711 32.5345 97.6838 32.5345H96.0236ZM96.5153 31.5703H97.62C97.6923 31.5703 97.7647 31.5576 97.8371 31.532C97.9137 31.5022 97.9754 31.4511 98.0222 31.3788C98.0733 31.3022 98.0989 31.1957 98.0989 31.0595C98.0989 30.9701 98.0882 30.8956 98.0669 30.836C98.0457 30.7764 98.0159 30.7317 97.9775 30.7019C97.9392 30.6679 97.8967 30.6445 97.8498 30.6317C97.803 30.6189 97.7541 30.6104 97.703 30.6062C97.6519 30.6019 97.6029 30.5998 97.5561 30.5998H97.3709C97.2262 30.5998 97.124 30.57 97.0644 30.5104C97.0048 30.4465 96.9751 30.338 96.9751 30.1847C96.9751 30.0357 97.007 29.9314 97.0708 29.8718C97.1389 29.8122 97.2454 29.7824 97.3901 29.7824H97.5753C97.6178 29.7824 97.6625 29.7803 97.7094 29.7761C97.7562 29.7718 97.7966 29.759 97.8307 29.7377C97.869 29.7165 97.8988 29.6824 97.9201 29.6356C97.9456 29.5845 97.9584 29.5164 97.9584 29.4313C97.9584 29.2865 97.9222 29.1844 97.8498 29.1248C97.7775 29.0609 97.6498 29.029 97.4667 29.029H96.5153V31.5703ZM107.837 32.5345C107.684 32.5345 107.573 32.5132 107.505 32.4707C107.437 32.4238 107.395 32.3621 107.378 32.2855C107.365 32.2089 107.358 32.1301 107.358 32.0492V28.5565C107.358 28.4713 107.365 28.3926 107.378 28.3202C107.395 28.2478 107.437 28.1882 107.505 28.1414C107.573 28.0946 107.686 28.0712 107.844 28.0712C108.006 28.0712 108.118 28.0946 108.182 28.1414C108.25 28.1882 108.291 28.2478 108.304 28.3202C108.321 28.3926 108.329 28.4735 108.329 28.5628V32.0556C108.329 32.1365 108.321 32.2153 108.304 32.2919C108.286 32.3642 108.244 32.4238 108.176 32.4707C108.112 32.5132 107.999 32.5345 107.837 32.5345Z" fill="#178889"/>
<path d="M114.696 14.3077C114.718 14.3907 114.766 14.4545 114.92 14.5852C115.077 14.7211 115.154 14.7708 115.23 14.8204C115.239 14.905 115.274 14.9757 115.418 15.1569C115.676 16.028 116.114 16.8294 115.972 17.5093C115.733 18.6534 115.125 19.7204 114.672 20.8198C114.672 20.8198 114.705 20.8502 114.62 20.87C114.399 21.1257 114.265 21.3616 114.13 21.5975C114.13 21.5975 114.156 21.6213 114.088 21.6337C113.984 21.7322 113.95 21.8183 113.916 21.9044C113.916 21.9044 113.927 21.9072 113.851 21.9416C113.64 22.2108 113.506 22.4456 113.371 22.6805C113.371 22.6805 113.396 22.6952 113.314 22.7216C113.097 22.9836 112.962 23.2192 112.827 23.4547C112.827 23.4547 112.861 23.4871 112.768 23.5086C111.771 24.6308 110.586 25.0412 109.187 25.037C106.028 25.0273 102.869 25.0591 99.7105 25.0741C99.6398 25.036 99.5773 24.9872 99.5811 24.8205C100.361 23.6773 101.025 22.5927 101.833 21.6288C102.164 21.2341 102.796 20.9089 103.308 20.8819C105.046 20.7902 106.793 20.8769 108.535 20.8216C108.937 20.8088 109.33 20.5024 109.786 20.2999C109.903 20.1504 109.961 20.0322 110.085 19.8729C110.189 19.7367 110.226 19.6416 110.254 19.5455C110.243 19.5445 110.252 19.5634 110.314 19.536C110.411 19.4273 110.446 19.346 110.489 19.2654C110.499 19.2661 110.488 19.2507 110.56 19.2032C110.905 18.747 111.176 18.3384 111.565 17.7532C108.783 17.7532 106.271 17.7285 103.76 17.7837C103.437 17.7908 103.123 18.2126 102.823 18.4589C102.841 18.4755 102.813 18.4349 102.738 18.4753C102.455 18.8522 102.247 19.1889 101.979 19.5578C101.859 19.7097 101.799 19.8293 101.663 20.0003C100.503 21.6304 99.4182 23.2091 98.3335 24.7878C98.2515 24.805 98.1867 24.8481 97.9935 24.9726C84.9161 25.0279 71.9845 25.0215 59.053 25.0477C58.4415 25.0489 57.7471 25.2042 57.2349 25.5203C55.6822 26.4788 54.1963 26.4975 52.6781 25.5135C52.0199 25.0869 51.3599 24.6632 50.7006 24.2382C50.7006 24.2382 50.6746 24.268 50.6495 24.1792C49.7609 23.4829 48.8975 22.8754 47.9546 22.2119C47.6307 22.7323 47.409 23.0884 47.1874 23.4445C47.1874 23.4445 47.2205 23.49 47.1335 23.5053C46.8359 23.8525 46.6253 24.1845 46.4147 24.5164C46.4147 24.5164 46.4452 24.5384 46.3555 24.5651C44.5068 26.5408 42.7754 26.7714 40.5907 25.3457C40.151 25.0588 39.7307 24.737 39.2706 24.4883C39.0267 24.3565 38.6231 24.1981 38.4506 24.306C36.6262 25.4466 34.6106 24.9385 32.6718 25.0154C31.1087 25.0773 29.8501 24.4435 29.0848 23.0344C28.322 21.6299 28.4772 20.2588 29.355 18.9462C29.5832 18.6049 29.791 18.25 30.1029 17.7493C28.7694 17.7493 27.676 17.7077 26.5886 17.7703C26.1694 17.7944 25.7638 18.0553 25.352 18.2082C25.352 18.2082 25.3685 18.2162 25.2866 18.2521C24.8903 18.7781 24.5759 19.2681 24.2615 19.7581C24.2615 19.7581 24.2953 19.8006 24.2056 19.8215C23.3056 20.9878 22.4897 22.1294 21.6867 23.2799C20.9018 24.4045 19.8215 25.0118 18.4623 25.0173C13.5923 25.0372 8.72214 25.0385 3.85217 25.0169C2.33456 25.0101 1.10044 24.3644 0.431516 22.9702C-0.215755 21.6212 -0.14634 20.2382 0.717621 18.9747C1.58369 17.7081 2.48929 16.4683 3.38841 15.2245C4.09826 14.2426 5.05442 13.6494 6.27861 13.6474C10.358 13.641 14.4374 13.6683 18.5168 13.6827C18.5168 13.6827 18.4929 13.7215 18.4683 13.8081C18.2755 14.1811 18.1074 14.4676 17.9392 14.7541C17.9392 14.7541 17.9731 14.7892 17.8848 14.8083C17.5873 15.1635 17.3782 15.4995 17.1691 15.8356C17.1055 15.8941 17.0418 15.9525 16.8882 16.1253C16.1889 17.4852 15.2362 17.9002 13.8325 17.7843C12.0922 17.6405 10.331 17.7476 8.57879 17.7485C6.60404 17.7495 5.35754 18.7709 4.83771 20.847C9.09657 20.847 13.3441 20.8603 17.5912 20.8235C17.9571 20.8203 18.4499 20.5799 18.6624 20.2883C19.7162 18.8425 20.6957 17.3426 21.7014 15.8618C21.7014 15.8618 21.6787 15.8492 21.7598 15.8196C21.9767 15.5556 22.1125 15.3212 22.2483 15.0868C22.2483 15.0868 22.2153 15.0614 22.3018 15.0438C22.6027 14.7825 22.8171 14.5387 23.0316 14.295C23.0316 14.295 23 14.2721 23.1108 14.2627C23.9248 14.0442 24.6214 13.6864 25.3325 13.6547C27.212 13.5711 29.1003 13.5679 30.9806 13.644C34.0752 13.7694 35.6556 16.8933 34.0098 19.5406C33.7699 19.9265 33.5293 20.3121 33.289 20.6978C33.3603 20.82 33.4315 20.9422 33.5028 21.0644C34.4018 20.8241 35.3008 20.5839 36.1998 20.3437C36.1998 20.3437 36.1775 20.329 36.2636 20.2984C37.0917 19.1519 37.8335 18.0359 38.5753 16.92C38.5753 16.92 38.549 16.9047 38.6308 16.8755C38.8472 16.6109 38.9818 16.3754 39.1164 16.14C39.1164 16.14 39.0835 16.1162 39.1681 16.0925C39.387 15.8328 39.5212 15.5967 39.6554 15.3606C39.6554 15.3606 39.6299 15.3416 39.6984 15.3287C39.8048 15.2321 39.8427 15.1483 39.8806 15.0644C39.8806 15.0644 39.8636 15.0578 39.9899 15.0384C41.6774 15.019 43.2387 15.019 44.9748 15.019C44.4033 15.9548 43.9611 16.6788 43.519 17.4028C43.519 17.4028 43.5477 17.4234 43.4646 17.4488C43.2481 17.7114 43.1148 17.9485 42.9815 18.1857C42.9815 18.1857 43.0141 18.2127 42.9248 18.2385C42.2908 19.0437 41.7462 19.8233 41.1442 20.6848C41.8097 21.1286 42.3967 21.5201 43.0541 21.9586C43.6447 21.0629 44.1435 20.3063 44.6423 19.5497C44.7327 19.5241 44.7968 19.4683 44.9144 19.2801C45.0607 19.044 45.1273 18.9102 45.1939 18.7765C45.1939 18.7765 45.1626 18.7664 45.2489 18.7362C46.0558 17.7132 46.753 16.702 47.5101 15.7379C47.759 15.4209 48.1521 15.0285 48.4981 15.0093C49.9589 14.9282 51.4268 14.9749 53.0096 14.9749C52.7721 15.4759 52.6271 15.7816 52.4821 16.0874C52.4821 16.0874 52.5043 16.1008 52.4353 16.1145C52.3306 16.2113 52.2949 16.2943 52.2591 16.3773C52.2591 16.3773 52.2512 16.3738 52.1873 16.4156C52.0583 16.5939 51.9932 16.7304 51.928 16.8668C51.928 16.8668 51.9623 16.8808 51.8741 16.9087C51.3493 17.5546 50.9127 18.1725 50.4252 18.8625C51.0345 19.2377 51.5058 19.5279 51.9771 19.8182C51.9771 19.8182 51.9857 19.7996 52.0219 19.8831C52.8357 20.5032 53.6134 21.0399 54.5831 21.7092C54.5831 19.3137 54.5831 17.181 54.5831 15.0484C54.5831 15.0484 54.6241 15.0385 54.7411 15.0068C56.1067 14.9575 57.3553 14.94 58.6039 14.9224C58.6039 14.9224 58.6382 15.0048 58.6677 15.1407C58.6972 17.1046 58.6972 18.9326 58.6972 20.8467C59.3482 20.8467 59.8257 20.8467 60.3031 20.8467C68.9322 20.8473 77.5616 20.8167 86.1902 20.8821C87.4917 20.8919 88.256 20.4868 88.6736 19.3119C88.6736 19.3119 88.6394 19.2729 88.7316 19.2521C89.1062 18.8132 89.3885 18.3952 89.834 17.7356C81.7474 17.7356 73.9492 17.7356 66.1511 17.7356C66.1649 17.684 66.1788 17.6324 66.3037 17.4839C67.8039 16.3901 69.1503 15.3244 70.6005 14.4263C71.2965 13.9952 72.1863 13.6671 72.9926 13.6577C78.5624 13.5929 84.1338 13.6624 89.7038 13.6023C91.4 13.5839 92.8043 13.995 93.8744 15.3445C93.8744 15.3445 93.8938 15.3229 93.8966 15.4292C94.9617 17.4826 94.0594 19.1289 93.0369 20.8739C94.1595 20.8201 95.3052 20.8484 96.1648 20.3665C96.8371 19.9896 97.1547 18.9799 97.6299 18.2513C97.6299 18.2513 97.5976 18.222 97.687 18.1975C98.3125 17.4233 98.9025 16.7059 99.3736 15.9174C100.377 14.2389 101.797 13.5315 103.759 13.6006C106.346 13.6919 108.942 13.5582 111.53 13.6541C112.592 13.6934 113.641 14.0794 114.696 14.3077Z" fill="#178889"/>
<path d="M65.9159 16.6946C65.1192 17.2342 64.3396 17.8016 63.5212 18.3062C62.5402 18.9111 61.7271 18.5418 61.7113 17.4025C61.6657 14.1137 61.6743 10.8231 61.7335 7.53455C61.7539 6.39926 62.5822 6.02027 63.5441 6.65743C64.3057 7.16189 65.2056 7.64839 65.6518 8.3816C66.0582 9.04925 65.9367 10.0382 66.076 11.0998C66.6617 10.7453 67.146 10.494 67.5854 10.1799C71.9017 7.09447 76.1859 3.9633 80.5444 0.939086C81.3076 0.409547 82.3597 0.136102 83.3033 0.0616519C85.0432 -0.0756091 86.8016 0.0224483 88.6896 0.294911C82.7756 4.53955 76.8616 8.7842 70.8333 13.1158C70.6373 13.2888 70.5556 13.3748 70.3969 13.4741C70.2648 13.5686 70.2097 13.6498 70.1633 13.7334C70.1719 13.7357 70.1706 13.718 70.0849 13.7311C69.9221 13.8264 69.8449 13.9085 69.7109 13.9898C69.5848 14.0683 69.5156 14.1477 69.3525 14.2446C69.1682 14.3472 69.0777 14.4322 68.9266 14.5242C68.7857 14.617 68.7056 14.7029 68.5509 14.8019C68.4213 14.8929 68.3664 14.9708 68.3195 15.0515C68.3276 15.0543 68.325 15.0374 68.2406 15.0509C68.0795 15.1452 68.0029 15.226 67.8624 15.302C67.711 15.3808 67.6236 15.4642 67.4634 15.57C67.3441 15.6743 67.2976 15.7562 67.2605 15.8401C67.2699 15.8421 67.2708 15.823 67.1797 15.8283C67.0125 15.9216 66.9364 16.0094 66.7853 16.0899C66.4455 16.2865 66.1807 16.4906 65.9159 16.6946Z" fill="#96B11F"/>
<path d="M4.98694 30.4946C5.8833 28.5763 7.30923 28.0271 9.28413 28.2316C10.9723 28.4064 12.6934 28.2435 14.399 28.2768C15.7723 28.3036 16.1199 28.9791 15.3968 30.1157C15.3734 30.1526 15.3432 30.186 15.3243 30.2249C14.4717 31.9802 13.1862 32.756 11.141 32.5006C9.46079 32.2908 7.73372 32.4638 6.02753 32.4532C4.41666 32.4432 4.16185 31.9966 4.98694 30.4946Z" fill="#1B8888"/>
<path d="M21.2906 30.4645C22.2885 28.0431 24.2632 28.0885 26.2785 28.2885C27.1822 28.3781 27.5082 28.9225 27.1483 29.771C26.2178 31.9643 23.7784 33.1475 21.4973 32.419C20.3312 32.0466 20.7564 31.249 21.2906 30.4645Z" fill="#1B8888"/>
</svg>
