<svg width="25" height="21" viewBox="0 0 25 21" fill="none" xmlns="http://www.w3.org/2000/svg">
    <path
        d="M4.11502 7.9925C3.81704 10.2735 3.63949 12.5687 3.5831 14.8684C6.70179 16.1712 9.68786 17.7711 12.5 19.6459C15.3125 17.771 18.299 16.1711 21.418 14.8684C21.3616 12.5687 21.184 10.2735 20.8861 7.9925M20.8861 7.9925C21.834 7.674 22.7949 7.37933 23.7656 7.11066C20.2302 4.63226 16.4563 2.51287 12.5 0.783997C8.54368 2.51323 4.76978 4.63299 1.23444 7.11175C2.20216 7.37889 3.16235 7.67259 4.11394 7.9925C7.00498 8.96438 9.81004 10.1754 12.5 11.613C15.1897 10.1755 17.9954 8.96446 20.8861 7.9925ZM6.81252 13.2499C7.02801 13.2499 7.23467 13.1643 7.38704 13.0119C7.53942 12.8596 7.62502 12.6529 7.62502 12.4374C7.62502 12.2219 7.53942 12.0153 7.38704 11.8629C7.23467 11.7105 7.02801 11.6249 6.81252 11.6249C6.59703 11.6249 6.39037 11.7105 6.238 11.8629C6.08562 12.0153 6.00002 12.2219 6.00002 12.4374C6.00002 12.6529 6.08562 12.8596 6.238 13.0119C6.39037 13.1643 6.59703 13.2499 6.81252 13.2499ZM6.81252 13.2499V9.26866C8.65065 8.12611 10.5493 7.08387 12.5 6.1465M4.9091 18.659C5.51357 18.056 5.99291 17.3395 6.31956 16.5507C6.64622 15.7618 6.81375 14.9162 6.81252 14.0624V12.4374"
        stroke="#4B5563" stroke-width="1.5" stroke-linecap="round" stroke-linejoin="round" />
</svg>