<svg width="27" height="26" viewBox="0 0 27 26" fill="none" xmlns="http://www.w3.org/2000/svg">
<path d="M12.882 16.3779L19.0991 22.595C19.6323 23.1112 20.347 23.3971 21.089 23.3911C21.8311 23.385 22.5411 23.0876 23.0658 22.5628C23.5906 22.0381 23.888 21.3281 23.8941 20.586C23.9001 19.844 23.6142 19.1293 23.098 18.5961L16.8308 12.3288M12.882 16.3779L15.5437 13.1468C15.8817 12.7373 16.3328 12.4792 16.8319 12.3299C17.4184 12.155 18.0721 12.1294 18.6906 12.1806C19.5244 12.2522 20.3623 12.1045 21.1214 11.7523C21.8804 11.4 22.5341 10.8553 23.0177 10.1724C23.5012 9.48942 23.7978 8.69189 23.8779 7.85893C23.958 7.02597 23.819 6.18653 23.4745 5.42392L19.981 8.9185C19.3965 8.78335 18.8617 8.48679 18.4375 8.06259C18.0133 7.63839 17.7167 7.10359 17.5816 6.51911L21.0751 3.02559C20.3125 2.6811 19.473 2.54203 18.6401 2.62215C17.8071 2.70228 17.0096 2.99883 16.3266 3.48238C15.6437 3.96593 15.099 4.61966 14.7468 5.3787C14.3945 6.13774 14.2468 6.97571 14.3184 7.80945C14.4154 8.95689 14.2427 10.2238 13.3544 10.9553L13.2456 11.046M12.882 16.3779L7.91788 22.4063C7.67729 22.6996 7.37796 22.9392 7.03916 23.1098C6.70036 23.2804 6.3296 23.3782 5.95073 23.3968C5.57186 23.4155 5.19329 23.3546 4.83937 23.2181C4.48546 23.0816 4.16404 22.8725 3.89582 22.6043C3.6276 22.336 3.4185 22.0146 3.282 21.6607C3.1455 21.3068 3.08461 20.9282 3.10326 20.5493C3.12191 20.1705 3.21968 19.7997 3.39027 19.4609C3.56087 19.1221 3.80051 18.8228 4.09378 18.5822L11.3847 12.5784L7.00504 8.19868H5.50249L3.1031 4.19969L4.70269 2.6001L8.70168 4.99949V6.50204L13.2445 11.0449L11.3837 12.5773M20.2988 19.7958L17.4995 16.9965M5.89386 20.5956H5.90239V20.6041H5.89386V20.5956Z" stroke="#4B5563" stroke-width="1.5" stroke-linecap="round" stroke-linejoin="round"/>
</svg>
